<svg width="92" height="26" viewBox="0 0 92 26" fill="none" xmlns="http://www.w3.org/2000/svg">
<path fill-rule="evenodd" clip-rule="evenodd" d="M3.69797 16.5959L12.6826 16.1711V17.6922C12.6826 22.1365 9.07981 25.7393 4.63551 25.7393C4.32219 25.7393 4.00915 25.721 3.69797 25.6845C2.68802 25.2835 2.05374 24.3649 1.79513 22.9288C1.53652 21.4926 2.1708 19.3816 3.69797 16.5959Z" fill="#C70707"/>
<path fill-rule="evenodd" clip-rule="evenodd" d="M14.6599 0H33.1631C33.1631 4.86346 29.2205 8.80607 24.3571 8.80607H15.0527C12.2114 8.80607 9.42123 9.56218 6.96865 10.9968L3.69769 12.9101L7.35159 4.7379C8.64028 1.85564 11.5026 0 14.6599 0Z" fill="#FA5A5A"/>
<path fill-rule="evenodd" clip-rule="evenodd" d="M10.4938 8.80591H22.4543C21.6708 12.9321 18.1484 15.975 13.9521 16.1507L10.3093 16.3032C8.24594 16.55 6.62736 16.8945 5.45357 17.3367C4.89678 17.5465 4.21424 17.99 3.40595 18.6674C2.87588 19.3276 2.54453 19.8395 2.41191 20.2031C2.27929 20.5667 2.13037 21.0674 1.96517 21.7052C2.04341 22.6897 2.19233 23.4 2.41191 23.8361C2.63149 24.2721 3.30201 24.9805 3.93963 25.7172C3.61571 25.6863 3.07468 25.479 2.80039 25.3393C2.52611 25.1996 2.1742 24.9534 1.74469 24.6006C0.977219 23.8868 0.457598 23.111 0.185826 22.2733C-0.0620233 21.5092 -0.0620233 20.6832 0.185826 19.7951L3.27486 13.351C4.60637 10.5733 7.41349 8.80591 10.4938 8.80591Z" fill="#EF3232"/>
<path d="M44.625 7.1719V9.06558H38.3882V13.5734H43.5341V15.3847H38.3882V21.7039H36.0417V7.1719H44.625ZM49.0619 6.47206V21.7039H46.7154V6.47206H49.0619ZM57.0885 10.2183C58.1863 10.2183 59.1743 10.4515 60.0525 10.9181C60.9308 11.3847 61.6169 12.0571 62.1109 12.9353C62.6049 13.8135 62.8519 14.8427 62.8519 16.0228C62.8519 17.2167 62.6049 18.2527 62.1109 19.1309C61.6169 20.0091 60.9308 20.6815 60.0525 21.1481C59.1743 21.6147 58.1863 21.8479 57.0885 21.8479C55.9907 21.8479 55.0027 21.6147 54.1245 21.1481C53.26 20.6815 52.5739 20.0091 52.0661 19.1309C51.5721 18.239 51.3251 17.2029 51.3251 16.0228C51.3251 14.8427 51.5721 13.8135 52.0661 12.9353C52.5739 12.0571 53.26 11.3847 54.1245 10.9181C55.0027 10.4515 55.9907 10.2183 57.0885 10.2183ZM57.0885 12.256C56.4847 12.256 55.929 12.3932 55.4213 12.6677C54.9135 12.9421 54.5019 13.3675 54.1862 13.9439C53.8844 14.5065 53.7334 15.1995 53.7334 16.0228C53.7334 16.8599 53.8844 17.5597 54.1862 18.1223C54.5019 18.6849 54.9135 19.1035 55.4213 19.3779C55.929 19.6524 56.4847 19.7896 57.0885 19.7896C57.6923 19.7896 58.2481 19.6524 58.7558 19.3779C59.2635 19.1035 59.6683 18.6849 59.9702 18.1223C60.2858 17.5597 60.4436 16.8599 60.4436 16.0228C60.4436 15.1995 60.2858 14.5065 59.9702 13.9439C59.6683 13.3675 59.2635 12.9421 58.7558 12.6677C58.2481 12.3932 57.6923 12.256 57.0885 12.256ZM70.1509 10.2183C71.6191 10.2183 72.8336 10.6093 73.7941 11.3915C74.7547 12.16 75.3516 13.2097 75.5849 14.5408H73.0943C72.9571 13.8272 72.6209 13.2715 72.0857 12.8735C71.5643 12.4619 70.9056 12.256 70.1097 12.256C69.204 12.256 68.4493 12.5785 67.8455 13.2235C67.2417 13.8547 66.9398 14.7878 66.9398 16.0228C66.9398 17.2578 67.2417 18.1978 67.8455 18.8427C68.4493 19.4877 69.204 19.8102 70.1097 19.8102C70.9056 19.8102 71.5643 19.6043 72.0857 19.1927C72.6209 18.781 72.9571 18.2184 73.0943 17.5048H75.5849C75.3516 18.8359 74.7547 19.8925 73.7941 20.6747C72.8336 21.4569 71.6191 21.8479 70.1509 21.8479C69.0531 21.8479 68.0788 21.6147 67.228 21.1481C66.3909 20.6815 65.7323 20.0091 65.252 19.1309C64.7717 18.2527 64.5316 17.2167 64.5316 16.0228C64.5316 14.8427 64.7717 13.8135 65.252 12.9353C65.7323 12.0571 66.3909 11.3847 67.228 10.9181C68.0788 10.4515 69.0531 10.2183 70.1509 10.2183ZM84.274 21.7039L80.1985 16.6609V21.7039H77.852V6.47206H80.1985V15.1995L84.2329 10.3623H87.0528L82.1128 16.0022L87.1763 21.7039H84.274Z" fill="#EF3232"/>
</svg>
