<svg width="758" height="588" viewBox="0 0 758 588" fill="none" xmlns="http://www.w3.org/2000/svg">
<path fill-rule="evenodd" clip-rule="evenodd" d="M84.4746 379.124L289.724 369.421V404.168C289.724 505.696 207.42 588 105.892 588C98.7348 588 91.5834 587.582 84.4746 586.748C61.4029 577.588 46.9132 556.604 41.0054 523.795C35.0976 490.987 49.5873 442.763 84.4746 379.124Z" fill="#A91466"/>
<path fill-rule="evenodd" clip-rule="evenodd" d="M334.898 0H757.595C757.595 111.103 667.528 201.17 556.425 201.17H343.873C278.964 201.17 215.224 218.443 159.196 251.216L84.473 294.925L167.944 108.235C197.384 42.3912 262.773 0 334.898 0Z" fill="#FF1C99"/>
<path fill-rule="evenodd" clip-rule="evenodd" d="M239.727 201.17H512.956C495.058 295.431 414.591 364.945 318.73 368.958L235.512 372.442C188.375 378.079 151.4 385.949 124.585 396.051C111.866 400.843 96.2735 410.976 77.8084 426.451C65.6992 441.533 58.1298 453.228 55.1001 461.533C52.0705 469.839 48.6686 481.278 44.8946 495.848C46.682 518.339 50.0839 534.565 55.1001 544.526C60.1163 554.488 75.434 570.669 90 587.5C82.6002 586.792 70.2408 582.058 63.9749 578.867C57.7089 575.675 49.6699 570.05 39.8579 561.99C22.3254 545.685 10.455 527.963 4.24648 508.824C-1.41549 491.37 -1.41549 472.5 4.24648 452.213L74.8139 305C105.231 241.545 169.359 201.17 239.727 201.17Z" fill="#D81A83"/>
</svg>
